<svg xmlns="http://www.w3.org/2000/svg" width="612" height="792"><path fill="#F1626E" d="M394.173 153.535c-62.655-62.656-164.24-62.656-226.896 0s-62.656 164.24 0 226.896 164.24 62.657 226.896 0c62.655-62.656 62.656-164.24 0-226.895zm-44.508 207.252l-63.283-63.283c-3.11-3.11-8.203-3.11-11.313 0l-63.284 63.283c-3.11 3.112-8.202 3.11-11.313 0l-13.55-13.55c-3.112-3.112-3.112-8.203 0-11.314l63.282-63.283c3.11-3.11 3.11-8.203 0-11.313l-63.283-63.283c-3.11-3.11-3.11-8.203 0-11.313l13.55-13.55c3.112-3.11 8.203-3.11 11.314 0l63.283 63.283c3.11 3.11 8.202 3.11 11.312 0l63.282-63.282c3.11-3.11 8.202-3.11 11.313 0l13.552 13.552c3.11 3.112 3.11 8.203 0 11.314l-63.283 63.282c-3.11 3.11-3.11 8.203 0 11.313l63.282 63.284c3.11 3.11 3.11 8.203 0 11.313l-13.552 13.55c-3.11 3.11-8.202 3.11-11.313 0z"/></svg>